<?xml version="1.0" encoding="UTF-8" standalone="no"?>
<!-- Created with Inkscape (http://www.inkscape.org/) -->

<svg
   width="104.04607mm"
   height="102.59641mm"
   viewBox="0 0 104.04607 102.59641"
   version="1.1"
   id="svg1"
   xml:space="preserve"
   sodipodi:docname="onizuka-fav.svg"
   inkscape:version="1.4.2 (f4327f4, 2025-05-13)"
   xmlns:inkscape="http://www.inkscape.org/namespaces/inkscape"
   xmlns:sodipodi="http://sodipodi.sourceforge.net/DTD/sodipodi-0.dtd"
   xmlns="http://www.w3.org/2000/svg"
   xmlns:svg="http://www.w3.org/2000/svg"><sodipodi:namedview
     id="namedview1"
     pagecolor="#ffffff"
     bordercolor="#000000"
     borderopacity="0.25"
     inkscape:showpageshadow="2"
     inkscape:pageopacity="0.0"
     inkscape:pagecheckerboard="0"
     inkscape:deskcolor="#d1d1d1"
     inkscape:document-units="mm"
     inkscape:zoom="2.0334082"
     inkscape:cx="233.35207"
     inkscape:cy="173.35428"
     inkscape:window-width="1920"
     inkscape:window-height="1009"
     inkscape:window-x="-8"
     inkscape:window-y="-8"
     inkscape:window-maximized="1"
     inkscape:current-layer="layer1" /><defs
     id="defs1" /><g
     inkscape:label="Layer 1"
     inkscape:groupmode="layer"
     id="layer1"
     transform="translate(-50.146793,-197.97805)"><path
       style="fill:#000000"
       d="m 99.724678,300.40422 c -7.420641,-0.39382 -14.344939,-2.17211 -20.574,-5.28381 -7.649856,-3.82145 -13.874525,-8.97466 -18.871367,-15.62301 -4.262734,-5.67161 -7.354041,-12.3203 -8.856656,-19.04861 -1.03989,-4.65635 -1.426436,-8.86805 -1.224001,-13.33639 0.429571,-9.4819 3.216933,-17.96309 8.542546,-25.99267 3.033179,-4.57321 6.530293,-8.39437 10.926811,-11.93929 1.707272,-1.37658 4.570663,-3.32724 6.519333,-4.44124 1.67763,-0.95906 4.638666,-2.38482 6.434667,-3.09835 6.119302,-2.43112 11.659008,-3.52726 18.457339,-3.65216 8.0755,-0.14836 15.12847,1.25043 22.45506,4.45342 2.75285,1.20348 6.90847,3.65059 9.49484,5.5912 2.88864,2.16741 6.24192,5.27826 8.3566,7.75242 1.37615,1.61009 3.16836,3.95013 4.11769,5.37634 2.71377,4.07697 4.99651,8.91364 6.37356,13.50433 1.12535,3.75156 1.85257,7.8046 2.0888,11.64166 0.10834,1.75968 0.0613,5.57802 -0.0891,7.23901 -0.64088,7.07585 -2.54017,13.44854 -5.80653,19.48265 -1.1128,2.05573 -1.83948,3.23882 -3.03655,4.94368 -4.88279,6.95407 -10.91124,12.30876 -18.42738,16.36785 -5.03164,2.71734 -10.85963,4.65671 -16.56816,5.51334 -3.48863,0.52351 -7.13948,0.71807 -10.313502,0.54963 z m 7.366002,-1.97631 c 8.5988,-0.89285 16.83403,-3.97199 23.92135,-8.94416 1.72743,-1.21189 2.52809,-1.82995 3.89165,-3.00406 4.36831,-3.76142 7.91219,-8.04093 11.00544,-13.28996 0.64766,-1.09903 2.17774,-4.25019 2.7881,-5.74201 1.06689,-2.60768 2.19456,-6.33527 2.66841,-8.82065 0.89427,-4.6905 1.12501,-8.92361 0.72811,-13.35787 -0.42365,-4.73309 -1.16128,-8.11162 -2.71232,-12.42314 -0.7505,-2.0862 -1.28666,-3.32082 -2.37156,-5.461 -4.52374,-8.92395 -11.03309,-15.85979 -19.68508,-20.97483 -2.98289,-1.76349 -6.98127,-3.51054 -10.49744,-4.58675 -2.71314,-0.83043 -6.52565,-1.58428 -9.44033,-1.86663 -3.39059,-0.32846 -8.110654,-0.29381 -11.429999,0.0839 -4.026563,0.45817 -9.305448,1.82795 -13.038666,3.3833 -7.603069,3.16762 -14.168001,8.00443 -19.478905,14.35137 -1.086722,1.29871 -2.995646,3.92423 -3.908939,5.37633 -1.180769,1.87737 -2.712763,4.78301 -3.701273,7.01999 -1.902208,4.30465 -3.349451,9.99732 -3.725648,14.65468 -0.02633,0.32596 -0.08557,1.01176 -0.13165,1.524 -0.233735,2.59836 0.0021,7.33507 0.518472,10.414 1.013977,6.0458 3.011011,11.58455 6.094788,16.90384 3.307275,5.70481 8.600094,11.51157 14.046154,15.41005 1.351003,0.9671 3.215413,2.17635 4.487334,2.91047 1.334667,0.77035 4.254467,2.20899 5.762417,2.83926 4.930916,2.06095 10.157225,3.27626 16.123917,3.7494 1.089388,0.0864 6.837438,-0.0199 8.085668,-0.14951 z m -6.2865,-7.81037 c -0.22119,-0.0209 -0.40095,-0.0646 -0.39946,-0.0969 0.004,-0.0838 0.60899,-0.66395 2.10184,-2.0149 0.71512,-0.64714 1.95337,-1.77771 2.75166,-2.51237 0.7983,-0.73465 2.05153,-1.87022 2.78496,-2.52347 0.73342,-0.65325 1.3335,-1.21511 1.3335,-1.24858 0,-0.0335 -0.30757,-0.36475 -0.68349,-0.73619 -0.37592,-0.37144 -0.73787,-0.77823 -0.80433,-0.90398 -0.15523,-0.29367 -0.16649,-1.53479 -0.015,-1.65486 0.0582,-0.0461 0.60113,-0.24531 1.2065,-0.4426 1.9308,-0.62926 4.09858,-1.58798 5.75734,-2.54626 1.95691,-1.13052 4.31645,-2.76122 4.56432,-3.15444 0.11267,-0.17873 0.4166,-2.04876 0.51872,-3.19154 0.027,-0.30268 0.0663,-0.6344 0.0872,-0.73715 0.0321,-0.15762 -0.0544,-0.11726 -0.55345,0.25818 -0.84028,0.63213 -1.87077,1.18507 -3.02577,1.62355 -0.54912,0.20847 -1.02877,0.37912 -1.06587,0.37923 -0.0371,1e-4 0.16922,-0.27481 0.4585,-0.61091 0.6216,-0.72223 1.38299,-1.86681 2.09981,-3.15657 1.36112,-2.44905 2.2198,-5.75622 2.3522,-9.05933 l 0.0475,-1.18533 -0.76919,-0.5733 c -3.08507,-2.29937 -5.44514,-5.29943 -6.75288,-8.58408 l -0.50031,-1.25663 -0.0617,0.84667 c -0.17476,2.39968 -0.84791,4.91337 -1.8537,6.92216 -0.79735,1.59249 -2.24609,3.50231 -3.13912,4.13821 l -0.24549,0.1748 0.0474,-0.19892 c 0.0261,-0.1094 0.17731,-0.73235 0.33604,-1.38432 0.75348,-3.09492 0.99115,-7.19049 0.59968,-10.33376 -0.22197,-1.78233 -0.63953,-3.85764 -1.04483,-5.1929 l -0.13843,-0.45607 -0.89285,0.0542 c -2.36401,0.14358 -4.62253,0.71954 -7.201499,1.83651 -1.402308,0.60735 -1.155874,0.62009 -2.823572,-0.14601 -1.147064,-0.52693 -2.668384,-0.99062 -3.879523,-1.18244 -0.834941,-0.13225 -3.369757,-0.14244 -3.497794,-0.0141 -0.236347,0.23695 -0.797551,2.81027 -1.011828,4.63958 -0.331663,2.83146 -0.234757,5.47454 0.298005,8.128 0.223682,1.11406 0.718995,3.02233 0.8871,3.41768 0.122036,0.28701 -0.22082,0.0254 -0.90455,-0.69028 -2.303169,-2.4107 -3.594522,-4.99803 -4.18196,-8.3789 -0.08293,-0.47731 -0.173167,-0.86783 -0.200518,-0.86783 -0.02735,0 -0.139082,0.31432 -0.248292,0.6985 -0.420048,1.47764 -1.646674,4.61177 -2.198343,5.61694 -0.04877,0.0889 -0.305309,0.56161 -0.570095,1.05056 -0.264786,0.48895 -0.724272,1.27444 -1.02108,1.74553 -0.614096,0.97468 -0.613047,0.96841 -0.414237,2.47577 0.439399,3.33147 1.461923,6.25507 2.995025,8.56337 0.600823,0.90462 1.571677,2.1578 2.114144,2.72894 0.165045,0.17377 0.282539,0.33349 0.261098,0.35493 -0.02144,0.0214 -0.495216,-0.14174 -1.052832,-0.36264 -0.991488,-0.39276 -1.994806,-0.9227 -2.572633,-1.35881 l -0.288785,-0.21796 0.05732,0.4226 c 0.327948,2.4179 1.600674,4.37974 3.981706,6.13757 2.905525,2.14506 7.570454,3.84606 11.609213,4.23316 0.5588,0.0536 1.182868,0.11669 1.386817,0.14029 l 0.370817,0.0429 -0.05258,0.43766 c -0.02892,0.24072 -0.05291,0.73349 -0.05332,1.09506 l -7.36e-4,0.65739 -0.891653,0.65232 c -0.857985,0.6277 -0.889538,0.66202 -0.835635,0.90895 0.117922,0.5402 1.149356,4.08134 1.50584,5.16988 0.320789,0.97954 0.353294,1.1404 0.230442,1.1404 -0.355072,0 -2.265949,-0.28333 -3.226327,-0.47838 -6.015803,-1.22177 -11.305476,-3.43515 -16.213667,-6.78435 -0.651933,-0.44486 -1.509183,-1.06047 -1.905,-1.36803 -0.395817,-0.30755 -0.938597,-0.72982 -1.206178,-0.93838 -0.26758,-0.20855 -0.486221,-0.43634 -0.485868,-0.50619 3.54e-4,-0.0699 0.114171,-0.50355 0.252926,-0.96378 0.298099,-0.98875 0.593611,-2.36793 0.844837,-3.94294 0.199604,-1.25138 0.259127,-3.13376 0.142215,-4.49744 l -0.06949,-0.8105 -0.637765,-0.7135 c -2.492555,-2.78857 -3.729716,-5.71991 -4.051896,-9.60062 -0.0698,-0.8407 -0.134428,-0.77735 -0.631458,0.61898 -0.654063,1.83749 -1.03969,3.62931 -1.169004,5.4318 l -0.06985,0.97367 -0.395599,-0.81279 c -0.456186,-0.93726 -0.911547,-2.27555 -1.10625,-3.25121 -0.682159,-3.41834 -0.179893,-7.44279 1.318113,-10.56149 0.240269,-0.50021 0.419036,-0.9273 0.39726,-0.94907 -0.02178,-0.0218 -0.327337,0.0518 -0.679025,0.16346 -1.212339,0.38499 -2.030144,0.49123 -3.417305,0.44394 -0.993467,-0.0339 -1.44637,-0.0904 -2.079998,-0.2596 -0.739468,-0.19747 -1.801741,-0.59385 -1.966288,-0.73371 -0.03683,-0.0313 0.462217,-0.2301 1.108981,-0.44179 2.789038,-0.91284 5.176253,-2.52409 7.383926,-4.98376 0.617703,-0.68822 0.656065,-0.75428 0.712903,-1.22767 0.146674,-1.22162 0.789826,-3.99045 1.098534,-4.72929 0.110206,-0.26377 0.102755,-0.28237 -0.309272,-0.77232 -1.17473,-1.39688 -2.449985,-3.7051 -3.013818,-5.45504 -1.178044,-3.65622 -1.138023,-7.08076 0.128096,-10.96093 0.877763,-2.69001 2.575714,-5.75291 4.06346,-7.33 0.57508,-0.60962 0.825184,-0.74224 0.752879,-0.39923 -0.124148,0.58895 -0.251937,2.48585 -0.246687,3.66183 0.0094,2.11439 0.385447,3.94528 1.199767,5.842 0.760307,1.77091 1.811651,3.24724 3.193152,4.48391 l 0.658254,0.58925 0.131825,-0.20825 c 0.447893,-0.70755 2.730112,-2.7742 4.514827,-4.08839 3.15767,-2.32516 7.445749,-4.20077 11.453674,-5.00982 0.371184,-0.0749 0.689277,-0.15063 0.706872,-0.16823 0.0176,-0.0176 -0.142669,-0.27676 -0.356144,-0.57592 -1.023834,-1.43477 -1.362806,-3.01072 -1.026098,-4.77053 0.379501,-1.98348 1.977672,-3.90237 3.941857,-4.73292 0.630039,-0.26641 1.565654,-0.54743 1.822595,-0.54743 0.09979,0 0.412703,-0.22328 0.719937,-0.5137 1.196145,-1.1307 2.778625,-2.10502 4.184105,-2.57612 1.63991,-0.54968 4.14189,-0.59842 5.88433,-0.11464 1.41601,0.39316 3.21431,1.3661 4.16514,2.25349 0.4485,0.41857 1.32719,1.50548 1.70163,2.10485 0.16206,0.25942 0.38328,0.4385 0.85793,0.69453 0.81158,0.43775 1.76491,1.14377 2.23089,1.65215 1.86948,2.03957 2.34313,5.1674 1.1605,7.66355 -0.32793,0.69214 -0.62442,1.10898 -1.25658,1.76663 -0.23389,0.24332 -0.40844,0.45679 -0.38788,0.47439 0.0206,0.0176 0.30407,0.1783 0.63004,0.35713 1.71948,0.94336 3.6409,2.20813 4.67524,3.07747 l 0.61124,0.51374 0.49974,-0.58063 c 0.5247,-0.60965 1.11734,-1.48176 1.58993,-2.33969 0.70365,-1.27741 1.47102,-3.88183 1.6457,-5.58549 0.10665,-1.04009 0.0601,-3.37886 -0.0844,-4.23333 -0.0393,-0.23283 -0.0526,-0.44238 -0.0295,-0.46567 0.10062,-0.10121 1.51225,1.62222 2.32455,2.83799 1.17013,1.75132 1.92618,3.4518 2.48376,5.58635 0.40613,1.55474 0.53219,2.30588 0.63525,3.78513 0.20365,2.92335 -0.40137,6.21311 -1.57097,8.54191 l -0.37875,0.75414 0.33749,0.67124 c 0.88718,1.76452 1.92387,4.55387 2.49106,6.70254 0.81248,3.0779 1.06547,7.12296 0.65839,10.5268 -0.0998,0.83476 -0.17236,1.52575 -0.16116,1.53551 0.0112,0.01 0.59185,-0.0101 1.29035,-0.0442 1.4289,-0.0697 3.43252,-0.0217 3.54639,0.0849 0.16102,0.15079 -0.64288,2.94863 -1.38561,4.82238 -1.10457,2.78659 -2.25062,4.78735 -3.97073,6.93203 -0.88985,1.10949 -0.85302,0.94875 -0.64256,2.80464 0.23243,2.04971 0.75561,4.41854 1.39106,6.29846 l 0.24591,0.72748 -0.43537,0.48753 c -1.56598,1.75359 -3.97029,4.00513 -5.77643,5.40938 -2.59158,2.01492 -6.12315,4.07019 -9.49663,5.52676 -4.31506,1.86311 -8.84071,2.98076 -13.74437,3.3943 -1.17724,0.0993 -4.47632,0.17272 -5.10116,0.11356 z m 24.48941,-21.42831 c -5.8e-4,-0.67341 0.22613,-1.26242 0.65011,-1.68908 0.83634,-0.84161 2.37377,-0.7813 3.1689,0.1243 0.16886,0.19233 0.28496,0.25989 0.36734,0.21379 0.38614,-0.21609 1.72208,-1.48135 2.50549,-2.37292 1.7045,-1.93984 2.97469,-3.92443 4.02442,-6.28792 0.40325,-0.90791 1.25021,-3.1377 1.2049,-3.17213 -0.0311,-0.0236 -1.33519,0.0878 -2.90374,0.24797 -1.66378,0.16995 -4.99039,0.85398 -7.01392,1.44223 l -0.46085,0.13398 -0.098,0.86447 c -0.40673,3.58857 -1.40186,8.82386 -1.98894,10.46362 -0.18178,0.50772 -0.17749,0.51853 0.20602,0.51853 h 0.33867 z m 1.69625,-3.75665 c 0.001,-0.0643 0.0772,-0.5931 0.16844,-1.17518 0.0913,-0.58208 0.23098,-1.58037 0.31047,-2.2184 l 0.14453,-1.16007 0.4702,-0.20949 c 1.90892,-0.85046 5.80617,-2.16872 6.11107,-2.06708 0.0483,0.0161 -0.13436,0.20465 -0.40588,0.41902 -0.27151,0.21436 -0.84927,0.67662 -1.28391,1.02724 -0.43464,0.35062 -1.29698,1.00472 -1.91633,1.45356 l -1.12607,0.81607 0.0728,0.31341 c 0.10857,0.46735 0.0917,1.08805 -0.038,1.39562 -0.15216,0.36091 -0.84259,0.9936 -1.3533,1.24014 -0.5051,0.24383 -1.15768,0.33723 -1.154,0.16516 z m -39.795829,0.61278 c -0.612528,-0.19767 -0.909934,-0.35806 -1.357969,-0.73239 -0.943495,-0.78826 -1.777104,-2.21939 -2.120157,-3.63986 -0.215917,-0.89403 -0.310107,-2.50219 -0.167973,-2.86788 l 0.09529,-0.24518 1.203905,0.0505 c 2.719855,0.11408 5.244454,1.22544 7.025572,3.09276 0.566844,0.59428 0.58619,0.70586 0.278976,1.6091 -0.543543,1.59809 -1.330895,2.4035 -2.713977,2.77623 -0.593617,0.15997 -1.678664,0.13904 -2.243667,-0.0433 z m 23.117399,-0.14651 c -0.77122,-0.16857 -1.15756,-0.37859 -1.72965,-0.94027 -0.87948,-0.86348 -1.47613,-1.94807 -1.74921,-3.17968 -0.10726,-0.48378 -0.10595,-0.49138 0.12624,-0.73373 0.69798,-0.72853 2.29795,-1.66021 3.56089,-2.07354 1.29973,-0.42537 3.26918,-0.64664 4.62487,-0.5196 l 0.64401,0.0603 0.0961,0.58165 c 0.36245,2.1947 -0.33717,4.57322 -1.70757,5.80533 -1.07321,0.96491 -2.42491,1.3144 -3.86564,0.99949 z"
       id="path8" /><path
       style="fill:#c4a25d"
       d="m 99.2342,290.46928 c -0.0466,-0.0162 -0.42757,-0.0565 -0.84667,-0.0896 -0.4191,-0.0331 -0.71767,-0.076 -0.66349,-0.0955 0.0672,-0.0241 -0.008,-0.35007 -0.23618,-1.02554 -0.3295,-0.97487 -1.44627,-4.8011 -1.5528,-5.3201 -0.0529,-0.25768 -0.0277,-0.28552 0.81756,-0.90272 0.87288,-0.63739 0.99556,-0.67062 0.99862,-0.27053 0.001,0.1482 1.33237,4.1922 1.62344,4.93163 0.0596,0.15134 0.14308,0.27516 0.18557,0.27516 0.0425,0 0.55304,-0.44767 1.13454,-0.99483 0.91674,-0.8626 2.1432,-1.99092 3.92507,-3.61097 0.26125,-0.23753 1.04896,-0.94621 1.75048,-1.57486 0.70152,-0.62865 1.30119,-1.21353 1.3326,-1.29972 0.0509,-0.13966 0.0732,-0.13044 0.20531,0.0847 0.0815,0.13277 0.43967,0.51289 0.79591,0.84473 0.35624,0.33184 0.64771,0.65052 0.64771,0.70817 0,0.0576 -0.14288,0.22874 -0.3175,0.3802 -1.29922,1.12683 -2.2012,1.93875 -4.00606,3.60603 -1.13783,1.05109 -2.29738,2.11356 -2.57678,2.36104 -0.2794,0.24748 -0.87573,0.80672 -1.32517,1.24275 l -0.81717,0.7928 -0.49516,-0.007 c -0.27234,-0.004 -0.53326,-0.0199 -0.57983,-0.0362 z m -1.53628,-8.88902 c -2.6e-4,-0.4191 0.0141,-0.60123 0.0318,-0.40472 0.0178,0.1965 0.018,0.5394 4.7e-4,0.762 -0.0175,0.22259 -0.032,0.0618 -0.0323,-0.35728 z m -0.22055,-1.45307 c 0.0582,-0.0235 0.15345,-0.0235 0.21166,0 0.0582,0.0235 0.0106,0.0427 -0.10583,0.0427 -0.11642,0 -0.16404,-0.0192 -0.10583,-0.0427 z m -1.14139,-0.0873 c 0.0824,-0.0215 0.19667,-0.0201 0.254,0.003 0.0573,0.0232 -0.0101,0.0408 -0.14978,0.039 -0.1397,-0.002 -0.1866,-0.0207 -0.10422,-0.0422 z m -0.71599,-0.0838 c 0.0611,-0.0245 0.13415,-0.0214 0.16228,0.007 0.0281,0.0281 -0.0219,0.0481 -0.11113,0.0445 -0.0986,-0.004 -0.11869,-0.0241 -0.0512,-0.0512 z m -0.67733,-0.0847 c 0.0611,-0.0245 0.13414,-0.0215 0.16228,0.007 0.0281,0.0281 -0.0219,0.0481 -0.11113,0.0445 -0.0986,-0.004 -0.11869,-0.0241 -0.0512,-0.0512 z"
       id="path5"
       sodipodi:nodetypes="csccssccssssscsscssscccccccccssssccccccccccccccc" /><path
       style="fill:#a22729"
       d="m 126.47875,278.45723 c -0.8788,-0.28812 -1.49555,-0.83343 -1.87381,-1.65677 -0.17867,-0.38892 -0.21649,-0.60037 -0.22023,-1.23153 -0.004,-0.68138 0.022,-0.81439 0.24613,-1.25715 0.35128,-0.69396 0.7921,-1.16204 1.37019,-1.45496 0.4561,-0.23109 0.56708,-0.25123 1.38484,-0.25123 0.79541,0 0.93813,0.0242 1.35573,0.22947 0.99518,0.48929 1.59243,1.38998 1.66975,2.51806 0.12746,1.85955 -0.98955,3.11165 -2.84602,3.1902 -0.47188,0.02 -0.85588,-0.0104 -1.08658,-0.0861 z m 0.61078,-7.30231 c -0.72974,-0.18113 -1.12369,-0.45048 -1.58086,-1.08086 -0.47212,-0.65101 -0.26839,-1.96717 0.41022,-2.65005 1.13015,-1.13728 3.18442,-0.58317 3.63933,0.98165 0.11347,0.39032 0.11801,0.53395 0.0295,0.93361 -0.0575,0.25978 -0.14147,0.54237 -0.18654,0.62798 -0.15996,0.30382 -0.69591,0.83256 -1.00242,0.98893 -0.32473,0.16566 -1.01831,0.27095 -1.30923,0.19874 z m -39.92033,-5.1857 c -0.61253,-0.19767 -0.90994,-0.35806 -1.35797,-0.73239 -0.92794,-0.77527 -1.7698,-2.20688 -2.11654,-3.59926 -0.20933,-0.84056 -0.31346,-2.54671 -0.17676,-2.89614 0.0908,-0.23208 0.0938,-0.23284 0.92492,-0.23284 2.67844,0 5.29528,1.07192 7.23485,2.96356 0.75842,0.73968 0.77518,0.80553 0.44914,1.76412 -0.54673,1.60747 -1.32277,2.40131 -2.71397,2.77623 -0.59362,0.15997 -1.67867,0.13904 -2.24367,-0.0433 z m 23.12719,-0.14 c -0.76237,-0.16546 -1.16916,-0.38688 -1.73944,-0.94678 -0.87948,-0.86348 -1.47614,-1.94807 -1.74921,-3.17968 -0.10726,-0.48378 -0.10595,-0.49138 0.12624,-0.73373 0.38368,-0.40048 1.50837,-1.17268 2.21957,-1.52393 1.48824,-0.73503 2.89764,-1.04423 4.81265,-1.05582 1.87981,-0.0114 1.78249,-0.0442 1.89545,0.63974 0.36147,2.1888 -0.33859,4.56171 -1.70941,5.7942 -1.06757,0.95984 -2.43033,1.31539 -3.85585,1.006 z m 14.49879,-24.57146 c -0.0744,-0.0815 -0.33445,-0.51012 -0.57778,-0.9525 -1.69843,-3.08782 -3.71319,-5.90521 -5.91203,-8.26725 -0.31433,-0.33765 -0.5715,-0.6747 -0.5715,-0.74899 0,-0.0747 0.23131,-0.27543 0.51723,-0.44892 0.28449,-0.17261 0.75808,-0.4751 1.05243,-0.67219 0.29435,-0.19709 0.96062,-0.62703 1.48059,-0.95541 1.28689,-0.81272 1.95756,-1.36232 3.3023,-2.70614 0.8081,-0.80755 1.29901,-1.3817 1.66651,-1.9491 0.28653,-0.44239 0.55261,-0.84244 0.5913,-0.889 0.12709,-0.153 0.60322,-1.25419 0.91521,-2.11667 0.43237,-1.19529 0.77223,-2.64871 0.89351,-3.82115 0.10459,-1.01103 0.0604,-3.36079 -0.0788,-4.19134 -0.0126,-0.0754 -0.0208,-0.13944 -0.0237,-0.19194 -0.0185,-0.33299 0.17275,-0.20054 0.7523,0.46403 0.95609,1.09643 2.54495,3.45403 2.41521,3.58377 -0.0277,0.0277 -0.004,0.0503 0.0535,0.0503 0.0571,0 0.0802,0.0381 0.0515,0.0847 -0.0288,0.0466 -0.01,0.0847 0.0423,0.0847 0.0521,0 0.073,0.035 0.0465,0.0778 -0.0265,0.0428 0.008,0.13353 0.0756,0.20159 0.0681,0.0681 0.10016,0.14733 0.0713,0.17616 -0.0288,0.0288 -0.0127,0.0524 0.0359,0.0524 0.10156,0 0.32003,0.48448 0.72946,1.61762 0.93739,2.59434 1.35567,5.48778 1.15876,8.01561 -0.053,0.68069 -0.11595,1.26926 -0.13984,1.30791 -0.0239,0.0387 -0.0589,0.19254 -0.0778,0.34196 -0.19317,1.5263 -0.78121,3.2762 -1.70209,5.06509 -1.14943,2.23286 -2.38136,3.7408 -4.53389,5.54973 -0.11841,0.0995 -0.49618,0.37404 -0.8395,0.61009 -0.34331,0.23604 -0.71946,0.50621 -0.83587,0.60036 -0.26138,0.21141 -0.38465,0.21732 -0.55869,0.0268 z m -51.71927,-0.77994 c -0.49735,-0.32784 -2.0814,-2.23393 -2.88277,-3.46883 -1.80137,-2.77592 -2.75335,-5.96772 -2.75058,-9.2222 0.002,-2.3653 0.73107,-5.45708 1.84962,-7.84387 0.26188,-0.5588 0.50537,-1.02878 0.54111,-1.04439 0.0357,-0.0156 0.0453,-0.0602 0.0213,-0.099 -0.024,-0.0388 0.0166,-0.13084 0.0902,-0.20444 0.0736,-0.0736 0.11274,-0.13383 0.087,-0.13383 -0.0767,0 0.77991,-1.42185 1.37099,-2.27556 0.63867,-0.92246 1.59182,-1.96599 1.74279,-1.90805 0.0823,0.0316 0.08,0.25846 -0.011,1.07465 -0.42096,3.77556 0.11676,6.98529 1.6343,9.7553 0.49769,0.90846 0.74278,1.26236 1.43867,2.07741 0.89465,1.04786 2.1729,2.14284 3.95553,3.38841 0.26776,0.18708 0.48684,0.37822 0.48684,0.42473 0,0.0465 -0.3637,0.43227 -0.80822,0.85724 -0.44452,0.42496 -1.17794,1.2138 -1.62983,1.75298 -0.45189,0.53918 -0.89093,1.05688 -0.97565,1.15045 -0.4426,0.48886 -2.91388,4.3234 -3.36718,5.22467 -0.24158,0.48032 -0.37539,0.65641 -0.50046,0.65859 -0.0233,4.1e-4 -0.15496,-0.0735 -0.29262,-0.16425 z"
       id="path4"
       sodipodi:nodetypes="sscssscscsssssscsssccssssssccsssssccsscsssssssscsscscsscssccsscccsssscccccscssscccsccssscsscc" /></g></svg>
